<?xml version="1.0" standalone="no"?>
<!DOCTYPE svg PUBLIC "-//W3C//DTD SVG 20010904//EN"
 "http://www.w3.org/TR/2001/REC-SVG-20010904/DTD/svg10.dtd">
<svg version="1.0" xmlns="http://www.w3.org/2000/svg"
 width="700.000000pt" height="700.000000pt" viewBox="0 0 700.000000 700.000000"
 preserveAspectRatio="xMidYMid meet">
<metadata>
Created by potrace 1.11, written by Peter Selinger 2001-2013
</metadata>
<g transform="translate(0.000000,700.000000) scale(0.100000,-0.100000)"
fill="#000000" stroke="none">
<path d="M3310 6994 c-459 -40 -748 -103 -1095 -241 -1141 -453 -1966 -1472
-2164 -2673 -36 -218 -45 -339 -45 -580 0 -573 118 -1072 375 -1580 499 -990
1450 -1689 2539 -1869 218 -36 339 -45 580 -45 573 0 1072 118 1580 375 990
499 1689 1450 1869 2539 36 218 45 339 45 580 0 241 -9 362 -45 580 -179 1085
-878 2038 -1860 2535 -389 197 -758 308 -1194 360 -126 15 -493 27 -585 19z
m630 -1829 c0 -504 1 -526 21 -579 39 -106 134 -184 249 -206 31 -6 259 -10
546 -10 l494 0 0 -1387 c0 -1521 3 -1436 -60 -1528 -36 -52 -78 -86 -146 -117
l-49 -23 -1495 0 -1495 0 -49 23 c-68 31 -110 65 -146 117 -64 93 -60 -45 -58
2067 l3 1923 24 49 c46 93 122 156 220 182 35 10 276 13 994 13 l947 1 0 -525z"/>
<path d="M2410 4485 l0 -105 520 0 520 0 0 105 0 105 -520 0 -520 0 0 -105z"/>
<path d="M3463 4043 l-1053 -3 0 -105 0 -105 1090 0 1090 0 0 110 0 110 -37
-2 c-21 -2 -512 -4 -1090 -5z"/>
<path d="M2410 3395 l0 -105 1090 0 1090 0 0 105 0 105 -1090 0 -1090 0 0
-105z"/>
<path d="M2410 2845 l0 -105 1090 0 1090 0 0 105 0 105 -1090 0 -1090 0 0
-105z"/>
<path d="M2410 2295 l0 -105 1090 0 1090 0 0 105 0 105 -1090 0 -1090 0 0
-105z"/>
</g>
</svg>
